<svg viewBox="0 0 1351 1355" xmlns="http://www.w3.org/2000/svg">
<path d="M113.869 134.678C178.209 86.3364 250.521 46.7845 327.957 22.6139C396.284 1.7392 483.969 -18.5861 544.893 29.7552C673.004 130.832 622.329 336.283 928.658 207.19C1234.99 78.0965 1258.33 164.891 1310.72 258.278C1363.1 351.664 1403.53 566.453 1128.51 610.4C1006.66 639.515 946.309 749.931 963.96 852.656C976.486 927.365 1006.09 1078.98 967.946 1138.86C905.314 1236.64 797.131 1317.39 680.407 1344.31C490.802 1388.8 148.601 1294.32 148.601 1062.5C148.601 1005.92 168.53 950.987 196.43 901.547C252.799 804.315 390.02 705.435 250.521 588.427C179.348 529.099 92.8014 481.307 36.4323 407.147C-43.851 300.576 20.4897 204.992 113.869 134.678Z" fill="#B2DFFF"/>
<path d="M176.281 104.464C176.281 104.464 385.815 -63.6319 529.3 87.4347C672.785 239.051 924.453 89.0826 994.487 74.2507C1064.52 59.4187 1292.84 14.3734 1339.53 289.04C1386.22 563.706 1262.1 623.584 1238.75 631.274C1215.41 638.965 988.794 694.997 973.42 829.583C958.047 964.17 1050.86 1272.9 727.446 1252.02C403.466 1231.7 241.191 1241.03 198.488 1125.12C155.784 1009.22 249.163 966.367 343.681 777.397C438.768 588.426 328.307 509.872 263.967 472.517C199.626 435.712 -60.5826 285.744 176.281 104.464Z" fill="#B2DFFF" stroke="#3F7D20" stroke-miterlimit="10" stroke-linecap="round" stroke-linejoin="round"/>
</svg>
