<svg width="283" height="283" viewBox="0 0 283 283" fill="none" xmlns="http://www.w3.org/2000/svg">
<path d="M-1.90735e-05 282.84V247.485L35.355 282.84H-1.90735e-05Z" fill="#DBF0FF"/>
<path d="M35.355 282.84V247.485L70.71 282.84H35.355Z" fill="#DBF0FF"/>
<path d="M70.7099 282.84V247.485L106.065 282.84H70.7099Z" fill="#DBF0FF"/>
<path d="M106.065 282.84V247.485L141.42 282.84H106.065Z" fill="#DBF0FF"/>
<path d="M141.42 282.84V247.485L176.775 282.84H141.42Z" fill="#DBF0FF"/>
<path d="M176.775 282.84V247.485L212.13 282.84H176.775Z" fill="#DBF0FF"/>
<path d="M212.13 282.84V247.485L247.485 282.84H212.13Z" fill="#DBF0FF"/>
<path d="M247.485 282.84V247.485L282.84 282.84H247.485Z" fill="#DBF0FF"/>
<path d="M-1.90735e-05 247.485V212.13L35.355 247.485H-1.90735e-05Z" fill="#DBF0FF"/>
<path d="M35.355 247.485V212.13L70.71 247.485H35.355Z" fill="#DBF0FF"/>
<path d="M70.7099 247.485V212.13L106.065 247.485H70.7099Z" fill="#DBF0FF"/>
<path d="M106.065 247.485V212.13L141.42 247.485H106.065Z" fill="#DBF0FF"/>
<path d="M141.42 247.485V212.13L176.775 247.485H141.42Z" fill="#DBF0FF"/>
<path d="M176.775 247.485V212.13L212.13 247.485H176.775Z" fill="#DBF0FF"/>
<path d="M212.13 247.485V212.13L247.485 247.485H212.13Z" fill="#DBF0FF"/>
<path d="M247.485 247.485V212.13L282.84 247.485H247.485Z" fill="#DBF0FF"/>
<path d="M-1.90735e-05 212.13V176.775L35.355 212.13H-1.90735e-05Z" fill="#DBF0FF"/>
<path d="M35.355 212.13V176.775L70.71 212.13H35.355Z" fill="#DBF0FF"/>
<path d="M70.7099 212.13V176.775L106.065 212.13H70.7099Z" fill="#DBF0FF"/>
<path d="M106.065 212.13V176.775L141.42 212.13H106.065Z" fill="#DBF0FF"/>
<path d="M141.42 212.13V176.775L176.775 212.13H141.42Z" fill="#DBF0FF"/>
<path d="M176.775 212.13V176.775L212.13 212.13H176.775Z" fill="#DBF0FF"/>
<path d="M212.13 212.13V176.775L247.485 212.13H212.13Z" fill="#DBF0FF"/>
<path d="M247.485 212.13V176.775L282.84 212.13H247.485Z" fill="#DBF0FF"/>
<path d="M-1.90735e-05 176.775V141.42L35.355 176.775H-1.90735e-05Z" fill="#DBF0FF"/>
<path d="M35.355 176.775V141.42L70.71 176.775H35.355Z" fill="#DBF0FF"/>
<path d="M70.7099 176.775V141.42L106.065 176.775H70.7099Z" fill="#DBF0FF"/>
<path d="M106.065 176.775V141.42L141.42 176.775H106.065Z" fill="#DBF0FF"/>
<path d="M141.42 176.775V141.42L176.775 176.775H141.42Z" fill="#DBF0FF"/>
<path d="M176.775 176.775V141.42L212.13 176.775H176.775Z" fill="#DBF0FF"/>
<path d="M212.13 176.775V141.42L247.485 176.775H212.13Z" fill="#DBF0FF"/>
<path d="M247.485 176.775V141.42L282.84 176.775H247.485Z" fill="#DBF0FF"/>
<path d="M-1.90735e-05 141.42V106.065L35.355 141.42H-1.90735e-05Z" fill="#DBF0FF"/>
<path d="M35.355 141.42V106.065L70.71 141.42H35.355Z" fill="#DBF0FF"/>
<path d="M70.7099 141.42V106.065L106.065 141.42H70.7099Z" fill="#DBF0FF"/>
<path d="M106.065 141.42V106.065L141.42 141.42H106.065Z" fill="#DBF0FF"/>
<path d="M141.42 141.42V106.065L176.775 141.42H141.42Z" fill="#DBF0FF"/>
<path d="M176.775 141.42V106.065L212.13 141.42H176.775Z" fill="#DBF0FF"/>
<path d="M212.13 141.42V106.065L247.485 141.42H212.13Z" fill="#DBF0FF"/>
<path d="M247.485 141.42V106.065L282.84 141.42H247.485Z" fill="#DBF0FF"/>
<path d="M-1.90735e-05 106.065V70.7099L35.355 106.065H-1.90735e-05Z" fill="#DBF0FF"/>
<path d="M35.355 106.065V70.7099L70.71 106.065H35.355Z" fill="#DBF0FF"/>
<path d="M70.7099 106.065V70.7099L106.065 106.065H70.7099Z" fill="#DBF0FF"/>
<path d="M106.065 106.065V70.7099L141.42 106.065H106.065Z" fill="#DBF0FF"/>
<path d="M141.42 106.065V70.7099L176.775 106.065H141.42Z" fill="#DBF0FF"/>
<path d="M176.775 106.065V70.7099L212.13 106.065H176.775Z" fill="#DBF0FF"/>
<path d="M212.13 106.065V70.7099L247.485 106.065H212.13Z" fill="#DBF0FF"/>
<path d="M247.485 106.065V70.7099L282.84 106.065H247.485Z" fill="#DBF0FF"/>
<path d="M-1.90735e-05 70.71V35.355L35.355 70.71H-1.90735e-05Z" fill="#DBF0FF"/>
<path d="M35.355 70.71V35.355L70.71 70.71H35.355Z" fill="#DBF0FF"/>
<path d="M70.7099 70.71V35.355L106.065 70.71H70.7099Z" fill="#DBF0FF"/>
<path d="M106.065 70.71V35.355L141.42 70.71H106.065Z" fill="#DBF0FF"/>
<path d="M141.42 70.71V35.355L176.775 70.71H141.42Z" fill="#DBF0FF"/>
<path d="M176.775 70.71V35.355L212.13 70.71H176.775Z" fill="#DBF0FF"/>
<path d="M212.13 70.71V35.355L247.485 70.71H212.13Z" fill="#DBF0FF"/>
<path d="M247.485 70.71V35.355L282.84 70.71H247.485Z" fill="#DBF0FF"/>
<path d="M-1.90735e-05 35.3549V-0.000141144L35.355 35.3549H-1.90735e-05Z" fill="#DBF0FF"/>
<path d="M35.355 35.3549V-0.000141144L70.71 35.3549H35.355Z" fill="#DBF0FF"/>
<path d="M70.7099 35.3549V-0.000141144L106.065 35.3549H70.7099Z" fill="#DBF0FF"/>
<path d="M106.065 35.3549V-0.000141144L141.42 35.3549H106.065Z" fill="#DBF0FF"/>
<path d="M141.42 35.3549V-0.000141144L176.775 35.3549H141.42Z" fill="#DBF0FF"/>
<path d="M176.775 35.3549V-0.000141144L212.13 35.3549H176.775Z" fill="#DBF0FF"/>
<path d="M212.13 35.3549V-0.000141144L247.485 35.3549H212.13Z" fill="#DBF0FF"/>
<path d="M247.485 35.3549V-0.000141144L282.84 35.3549H247.485Z" fill="#DBF0FF"/>
</svg>