<svg width="283" height="283" viewBox="0 0 283 283" fill="none" xmlns="http://www.w3.org/2000/svg">
<path d="M283 282.84L247.645 282.84L283 247.485L283 282.84Z" fill="#6FA1EC"/>
<path d="M283 247.485L247.645 247.485L283 212.13L283 247.485Z" fill="#6FA1EC"/>
<path d="M283 212.13L247.645 212.13L283 176.775L283 212.13Z" fill="#6FA1EC"/>
<path d="M283 176.775L247.645 176.775L283 141.42L283 176.775Z" fill="#6FA1EC"/>
<path d="M283 141.42L247.645 141.42L283 106.065L283 141.42Z" fill="#6FA1EC"/>
<path d="M283 106.065L247.645 106.065L283 70.71L283 106.065Z" fill="#6FA1EC"/>
<path d="M283 70.71L247.645 70.71L283 35.355L283 70.71Z" fill="#6FA1EC"/>
<path d="M283 35.355L247.645 35.355L283 0L283 35.355Z" fill="#6FA1EC"/>
<path d="M247.645 282.84L212.29 282.84L247.645 247.485L247.645 282.84Z" fill="#6FA1EC"/>
<path d="M247.645 247.485L212.29 247.485L247.645 212.13L247.645 247.485Z" fill="#6FA1EC"/>
<path d="M247.645 212.13L212.29 212.13L247.645 176.775L247.645 212.13Z" fill="#6FA1EC"/>
<path d="M247.645 176.775L212.29 176.775L247.645 141.42L247.645 176.775Z" fill="#6FA1EC"/>
<path d="M247.645 141.42L212.29 141.42L247.645 106.065L247.645 141.42Z" fill="#6FA1EC"/>
<path d="M247.645 106.065L212.29 106.065L247.645 70.71L247.645 106.065Z" fill="#6FA1EC"/>
<path d="M247.645 70.71L212.29 70.71L247.645 35.355L247.645 70.71Z" fill="#6FA1EC"/>
<path d="M247.645 35.355L212.29 35.355L247.645 0L247.645 35.355Z" fill="#6FA1EC"/>
<path d="M212.289 282.84L176.934 282.84L212.289 247.485L212.289 282.84Z" fill="#6FA1EC"/>
<path d="M212.289 247.485L176.934 247.485L212.289 212.13L212.289 247.485Z" fill="#6FA1EC"/>
<path d="M212.289 212.13L176.934 212.13L212.289 176.775L212.289 212.13Z" fill="#6FA1EC"/>
<path d="M212.289 176.775L176.934 176.775L212.289 141.42L212.289 176.775Z" fill="#6FA1EC"/>
<path d="M212.289 141.42L176.934 141.42L212.289 106.065L212.289 141.42Z" fill="#6FA1EC"/>
<path d="M212.289 106.065L176.934 106.065L212.289 70.71L212.289 106.065Z" fill="#6FA1EC"/>
<path d="M212.289 70.71L176.934 70.71L212.289 35.355L212.289 70.71Z" fill="#6FA1EC"/>
<path d="M212.289 35.355L176.934 35.355L212.289 0L212.289 35.355Z" fill="#6FA1EC"/>
<path d="M176.936 282.84L141.581 282.84L176.936 247.485L176.936 282.84Z" fill="#6FA1EC"/>
<path d="M176.936 247.485L141.581 247.485L176.936 212.13L176.936 247.485Z" fill="#6FA1EC"/>
<path d="M176.936 212.13L141.581 212.13L176.936 176.775L176.936 212.13Z" fill="#6FA1EC"/>
<path d="M176.936 176.775L141.581 176.775L176.936 141.42L176.936 176.775Z" fill="#6FA1EC"/>
<path d="M176.936 141.42L141.581 141.42L176.936 106.065L176.936 141.42Z" fill="#6FA1EC"/>
<path d="M176.936 106.065L141.581 106.065L176.936 70.71L176.936 106.065Z" fill="#6FA1EC"/>
<path d="M176.936 70.71L141.581 70.71L176.936 35.355L176.936 70.71Z" fill="#6FA1EC"/>
<path d="M176.936 35.355L141.581 35.355L176.936 0L176.936 35.355Z" fill="#6FA1EC"/>
<path d="M141.58 282.84L106.225 282.84L141.58 247.485L141.58 282.84Z" fill="#6FA1EC"/>
<path d="M141.58 247.485L106.225 247.485L141.58 212.13L141.58 247.485Z" fill="#6FA1EC"/>
<path d="M141.58 212.13L106.225 212.13L141.58 176.775L141.58 212.13Z" fill="#6FA1EC"/>
<path d="M141.58 176.775L106.225 176.775L141.58 141.42L141.58 176.775Z" fill="#6FA1EC"/>
<path d="M141.58 141.42L106.225 141.42L141.58 106.065L141.58 141.42Z" fill="#6FA1EC"/>
<path d="M141.58 106.065L106.225 106.065L141.58 70.71L141.58 106.065Z" fill="#6FA1EC"/>
<path d="M141.58 70.71L106.225 70.71L141.58 35.355L141.58 70.71Z" fill="#6FA1EC"/>
<path d="M141.58 35.355L106.225 35.355L141.58 0L141.58 35.355Z" fill="#6FA1EC"/>
<path d="M106.225 282.84L70.8696 282.84L106.225 247.485L106.225 282.84Z" fill="#6FA1EC"/>
<path d="M106.225 247.485L70.8696 247.485L106.225 212.13L106.225 247.485Z" fill="#6FA1EC"/>
<path d="M106.225 212.13L70.8696 212.13L106.225 176.775L106.225 212.13Z" fill="#6FA1EC"/>
<path d="M106.225 176.775L70.8696 176.775L106.225 141.42L106.225 176.775Z" fill="#6FA1EC"/>
<path d="M106.225 141.42L70.8696 141.42L106.225 106.065L106.225 141.42Z" fill="#6FA1EC"/>
<path d="M106.225 106.065L70.8696 106.065L106.225 70.71L106.225 106.065Z" fill="#6FA1EC"/>
<path d="M106.225 70.71L70.8696 70.71L106.225 35.355L106.225 70.71Z" fill="#6FA1EC"/>
<path d="M106.225 35.355L70.8696 35.355L106.225 0L106.225 35.355Z" fill="#6FA1EC"/>
<path d="M70.8701 282.84L35.5151 282.84L70.8701 247.485L70.8701 282.84Z" fill="#6FA1EC"/>
<path d="M70.8701 247.485L35.5151 247.485L70.8701 212.13L70.8701 247.485Z" fill="#6FA1EC"/>
<path d="M70.8701 212.13L35.5151 212.13L70.8701 176.775L70.8701 212.13Z" fill="#6FA1EC"/>
<path d="M70.8701 176.775L35.5151 176.775L70.8701 141.42L70.8701 176.775Z" fill="#6FA1EC"/>
<path d="M70.8701 141.42L35.5151 141.42L70.8701 106.065L70.8701 141.42Z" fill="#6FA1EC"/>
<path d="M70.8701 106.065L35.5151 106.065L70.8701 70.71L70.8701 106.065Z" fill="#6FA1EC"/>
<path d="M70.8701 70.71L35.5151 70.71L70.8701 35.355L70.8701 70.71Z" fill="#6FA1EC"/>
<path d="M70.8701 35.355L35.5151 35.355L70.8701 0L70.8701 35.355Z" fill="#6FA1EC"/>
<path d="M35.5146 282.84L0.15965 282.84L35.5146 247.485L35.5146 282.84Z" fill="#6FA1EC"/>
<path d="M35.5146 247.485L0.15965 247.485L35.5146 212.13L35.5146 247.485Z" fill="#6FA1EC"/>
<path d="M35.5146 212.13L0.15965 212.13L35.5146 176.775L35.5146 212.13Z" fill="#6FA1EC"/>
<path d="M35.5146 176.775L0.15965 176.775L35.5146 141.42L35.5146 176.775Z" fill="#6FA1EC"/>
<path d="M35.5146 141.42L0.15965 141.42L35.5146 106.065L35.5146 141.42Z" fill="#6FA1EC"/>
<path d="M35.5146 106.065L0.15965 106.065L35.5146 70.71L35.5146 106.065Z" fill="#6FA1EC"/>
<path d="M35.5146 70.71L0.15965 70.71L35.5146 35.355L35.5146 70.71Z" fill="#6FA1EC"/>
<path d="M35.5146 35.355L0.15965 35.355L35.5146 0L35.5146 35.355Z" fill="#6FA1EC"/>
</svg>
