<svg viewBox="0 0 500 500" xmlns="http://www.w3.org/2000/svg">
<path d="M0 50C0 22.3858 22.3858 0 50 0H450C477.614 0 500 22.3858 500 50V450C500 477.614 477.614 500 450 500H50C22.3858 500 0 477.614 0 450V50Z" fill="#202122"/>
<path d="M284 418.5L146.955 205.672H110.251L86 181.421L196.768 92.2825L284 232.545V418.5Z" fill="#F3EFF5"/>
<path d="M212 77C212 77 312.281 77.0003 363.404 77C395.963 76.9998 415.378 111.367 413.217 143.854C411.229 173.744 393.361 202.187 363.404 202.187H295.24V143.854H312.281V115.67H273.61V176.625L212 77Z" fill="#70B1DF"/>
</svg>
