<svg width="100" height="100" viewBox="0 0 100 100" fill="none" xmlns="http://www.w3.org/2000/svg">
<path fill-rule="evenodd" clip-rule="evenodd" d="M8.92013 6.63665C7.659 6.63665 6.63665 7.659 6.63665 8.92013V91.0799C6.63665 92.341 7.659 93.3633 8.92013 93.3633H91.0799C92.341 93.3633 93.3633 92.341 93.3633 91.0799V8.92013C93.3633 7.659 92.341 6.63665 91.0799 6.63665H8.92013ZM0 8.92013C0 3.99368 3.99368 0 8.92013 0H91.0799C96.0063 0 100 3.99368 100 8.92013V91.0799C100 96.0063 96.0063 100 91.0799 100H8.92013C3.99368 100 0 96.0063 0 91.0799V8.92013Z" fill="#04395E"/>
<path fill-rule="evenodd" clip-rule="evenodd" d="M16.8054 38.7964C16.8054 36.9637 18.2911 35.478 20.1237 35.478H31.3273C33.16 35.478 34.6457 36.9637 34.6457 38.7964V78.009C34.6457 79.8416 33.16 81.3273 31.3273 81.3273H20.1237C18.2911 81.3273 16.8054 79.8416 16.8054 78.009V38.7964ZM23.4421 42.1147V74.6906H28.009V42.1147H23.4421Z" fill="#04395E"/>
<path fill-rule="evenodd" clip-rule="evenodd" d="M25.7256 20.641C23.9488 20.641 22.5085 22.0814 22.5085 23.8582C22.5085 25.6349 23.9488 27.0753 25.7256 27.0753C27.5023 27.0753 28.9427 25.6349 28.9427 23.8582C28.9427 22.0814 27.5023 20.641 25.7256 20.641ZM15.8718 23.8582C15.8718 18.4161 20.2835 14.0044 25.7256 14.0044C31.1677 14.0044 35.5793 18.4161 35.5793 23.8582C35.5793 29.3002 31.1677 33.7119 25.7256 33.7119C20.2835 33.7119 15.8718 29.3002 15.8718 23.8582Z" fill="#04395E"/>
<path d="M61.088 42.2074C62.5904 41.5291 64.2202 41.1792 65.8685 41.1811L65.8724 41.1811C69.1473 41.1811 71.986 42.3898 74.0192 44.549C76.0541 46.7101 77.4922 50.053 77.4922 54.6682V74.6907H72.9253V56.5354C72.9253 52.8473 71.9244 49.7672 69.7403 47.6295L62.1371 44.8144C61.4314 44.8144 60.7104 44.8651 59.9911 44.9808L62.1379 51.4511C63.6497 51.4511 64.5613 51.847 65.0981 52.3724C65.6174 52.8806 66.2886 54.0019 66.2886 56.5354V78.009C66.2886 79.8417 67.7743 81.3273 69.6069 81.3273H80.8105C82.6432 81.3273 84.1289 79.8417 84.1289 78.009V54.6682C84.1289 48.6399 82.2227 43.5802 78.8509 39.9993C75.4779 36.4172 70.8482 34.5449 65.8743 34.5444C63.2822 34.5417 60.7194 35.0921 58.3569 36.1587C57.9799 36.329 57.6093 36.5118 57.2458 36.7066L59.3856 43.1559C59.924 42.7935 60.4933 42.4759 61.088 42.2074Z" fill="#04395E"/>
<path d="M54.668 46.2414C55.7 46.2414 56.622 45.7703 57.2306 45.0315C57.8703 44.318 58.5946 43.6885 59.3856 43.1559L57.2458 36.7066C56.6374 35.9571 55.7087 35.4781 54.668 35.4781H43.4644C41.6318 35.4781 40.1461 36.9637 40.1461 38.7964V78.009C40.1461 79.8417 41.6318 81.3273 43.4644 81.3273H54.668C56.5007 81.3273 57.9864 79.8417 57.9864 78.009V56.5354C57.9864 54.0019 58.6576 52.8806 59.1769 52.3724C59.7137 51.847 60.6261 51.4511 62.1379 51.4511L59.9911 44.9808C58.0472 45.2936 56.1161 46.0817 54.5347 47.6295C52.3506 49.7672 51.3497 52.8473 51.3497 56.5354V74.6907H46.7828V42.1147H51.3497V42.7817C51.3279 43.2907 51.4231 43.8074 51.6415 44.2904C52.1786 45.4781 53.3615 46.2414 54.6651 46.2414H54.668Z" fill="#04395E"/>
<path d="M69.7403 47.6295C67.5737 45.5089 64.7501 44.8144 62.1371 44.8144L69.7403 47.6295Z" fill="#04395E"/>
</svg>
