<svg width="2436" height="580" viewBox="0 0 2436 580" fill="none" xmlns="http://www.w3.org/2000/svg">
<path d="M255 418.5L117.955 205.672H81.2509L57 181.421L167.768 92.2825L255 232.545V418.5Z" fill="url(#paint0_linear_56_367)"/>
<path d="M183 77C183 77 283.281 77.0003 334.404 77C366.963 76.9998 386.378 111.367 384.217 143.854C382.229 173.744 364.361 202.187 334.404 202.187H266.24V143.854H283.281V115.67H244.61V176.625L183 77Z" fill="#031D44"/>
<path d="M310.417 418H279.038C278.316 418 277.956 417.549 277.956 416.647L278.226 226.345C278.226 225.624 278.677 225.263 279.579 225.263H310.417C311.318 225.263 311.769 225.624 311.769 226.345L311.499 301.682H353.021V226.345C353.021 225.624 353.382 225.263 354.104 225.263H384.941C385.843 225.263 386.294 225.624 386.294 226.345L386.835 416.647C386.835 417.549 386.384 418 385.482 418H354.374C353.472 418 353.021 417.549 353.021 416.647V335.225H311.499V416.647C311.499 417.549 311.138 418 310.417 418ZM500.042 418H410.504C409.783 418 409.422 417.549 409.422 416.647L409.693 226.345C409.693 225.624 410.054 225.263 410.775 225.263H499.772C500.493 225.263 500.854 225.714 500.854 226.616V257.589C500.854 258.31 500.493 258.671 499.772 258.671H442.965V301.952H499.772C500.493 301.952 500.854 302.313 500.854 303.034L501.125 334.413C501.125 335.134 500.764 335.495 500.042 335.495H442.965V383.916H500.042C500.764 383.916 501.125 384.367 501.125 385.269V416.918C501.125 417.639 500.764 418 500.042 418ZM616.361 418H526.823C526.101 418 525.741 417.549 525.741 416.647L526.011 226.616C526.011 225.714 526.462 225.263 527.364 225.263H558.202C559.103 225.263 559.554 225.714 559.554 226.616L559.284 383.916H616.361C617.263 383.916 617.713 384.367 617.713 385.269V416.647C617.713 417.549 617.263 418 616.361 418ZM693.591 418H661.806C661.175 418 660.859 417.639 660.859 416.918L661.13 338.2L624.07 226.345C623.89 225.624 624.16 225.263 624.882 225.263H655.72C656.621 225.263 657.162 225.624 657.343 226.345L677.766 300.87L698.595 226.345C698.776 225.624 699.226 225.263 699.948 225.263H731.056C731.778 225.263 732.048 225.624 731.868 226.345L694.402 337.118L694.673 416.918C694.673 417.639 694.312 418 693.591 418ZM779.477 418H748.369C747.467 418 747.016 417.549 747.016 416.647L747.557 226.345C747.557 225.624 747.918 225.263 748.639 225.263H801.929C818.881 225.263 832.271 230.448 842.1 240.817C852.018 251.097 856.978 265.118 856.978 282.881C856.978 295.866 854.408 307.182 849.268 316.83C844.038 326.388 837.276 333.782 828.98 339.012C820.684 344.242 811.667 346.856 801.929 346.856H780.83V416.647C780.83 417.549 780.379 418 779.477 418ZM801.929 258.13L780.83 258.4V313.313H801.929C807.79 313.313 812.885 310.518 817.213 304.928C821.541 299.247 823.705 291.898 823.705 282.881C823.705 275.668 821.766 269.762 817.889 265.163C814.012 260.474 808.692 258.13 801.929 258.13ZM908.239 418H877.13C876.229 418 875.778 417.549 875.778 416.647L876.319 226.345C876.319 225.624 876.68 225.263 877.401 225.263H930.691C947.643 225.263 961.033 230.448 970.861 240.817C980.78 251.097 985.739 265.118 985.739 282.881C985.739 295.866 983.169 307.182 978.03 316.83C972.8 326.388 966.037 333.782 957.742 339.012C949.446 344.242 940.429 346.856 930.691 346.856H909.591V416.647C909.591 417.549 909.14 418 908.239 418ZM930.691 258.13L909.591 258.4V313.313H930.691C936.552 313.313 941.646 310.518 945.975 304.928C950.303 299.247 952.467 291.898 952.467 282.881C952.467 275.668 950.528 269.762 946.651 265.163C942.774 260.474 937.454 258.13 930.691 258.13ZM1095.16 418H1005.62C1004.9 418 1004.54 417.549 1004.54 416.647L1004.81 226.345C1004.81 225.624 1005.17 225.263 1005.89 225.263H1094.89C1095.61 225.263 1095.97 225.714 1095.97 226.616V257.589C1095.97 258.31 1095.61 258.671 1094.89 258.671H1038.08V301.952H1094.89C1095.61 301.952 1095.97 302.313 1095.97 303.034L1096.24 334.413C1096.24 335.134 1095.88 335.495 1095.16 335.495H1038.08V383.916H1095.16C1095.88 383.916 1096.24 384.367 1096.24 385.269V416.918C1096.24 417.639 1095.88 418 1095.16 418ZM1155.05 223.269C1153.39 229.732 1151.27 236.75 1148.68 244.321C1146.1 251.892 1143.23 259.464 1140.1 267.035C1137.14 274.422 1134.19 281.439 1131.23 288.087H1113.23C1114.52 282.916 1115.81 277.376 1117.1 271.467C1118.58 265.558 1119.87 259.648 1120.98 253.739C1122.28 247.645 1123.38 241.736 1124.31 236.011C1125.41 230.286 1126.34 225.023 1127.08 220.222H1153.11L1155.05 223.269ZM1216.35 420.705C1206.52 420.705 1197.46 418.18 1189.16 413.131C1180.96 408.081 1174.37 401.364 1169.41 392.978C1164.54 384.502 1162.11 375.215 1162.11 365.116V352.402C1162.11 351.41 1162.56 350.914 1163.46 350.914H1194.57C1195.29 350.914 1195.65 351.41 1195.65 352.402V365.116C1195.65 371.157 1197.68 376.387 1201.74 380.805C1205.8 385.133 1210.67 387.297 1216.35 387.297C1222.12 387.297 1227.03 385.088 1231.09 380.67C1235.15 376.161 1237.18 370.977 1237.18 365.116C1237.18 358.353 1232.76 352.447 1223.92 347.397C1222.48 346.496 1220.59 345.414 1218.24 344.151C1215.99 342.799 1213.28 341.266 1210.13 339.553C1206.97 337.84 1203.9 336.171 1200.93 334.548C1197.95 332.835 1195.07 331.212 1192.27 329.679C1182.17 323.728 1174.64 316.289 1169.68 307.362C1164.82 298.345 1162.38 288.246 1162.38 277.065C1162.38 266.786 1164.91 257.499 1169.96 249.203C1175 240.998 1181.59 234.506 1189.7 229.727C1197.91 224.857 1206.79 222.423 1216.35 222.423C1226.18 222.423 1235.19 224.857 1243.4 229.727C1251.6 234.686 1258.14 241.268 1263.01 249.474C1267.97 257.679 1270.45 266.876 1270.45 277.065V299.788C1270.45 300.509 1270.09 300.87 1269.37 300.87H1238.26C1237.54 300.87 1237.18 300.509 1237.18 299.788L1236.91 277.065C1236.91 270.573 1234.88 265.298 1230.82 261.241C1226.76 257.183 1221.94 255.154 1216.35 255.154C1210.67 255.154 1205.8 257.318 1201.74 261.646C1197.68 265.975 1195.65 271.114 1195.65 277.065C1195.65 283.107 1196.92 288.156 1199.44 292.214C1202.06 296.271 1206.79 300.149 1213.64 303.846C1214.36 304.206 1216.03 305.108 1218.65 306.551C1221.26 307.993 1224.15 309.617 1227.3 311.42C1230.55 313.133 1233.48 314.711 1236.09 316.154C1238.71 317.506 1240.29 318.318 1240.83 318.588C1250.03 323.728 1257.28 330.04 1262.6 337.524C1268.01 345.008 1270.72 354.205 1270.72 365.116C1270.72 375.666 1268.28 385.133 1263.42 393.519C1258.46 401.905 1251.87 408.532 1243.67 413.401C1235.46 418.271 1226.36 420.705 1216.35 420.705ZM1394.34 418H1363.23C1362.33 418 1361.88 417.549 1361.88 416.647L1362.42 226.345C1362.42 225.624 1362.78 225.263 1363.5 225.263H1416.79C1433.75 225.263 1447.14 230.448 1456.96 240.817C1466.88 251.097 1471.84 265.118 1471.84 282.881C1471.84 295.866 1469.27 307.182 1464.13 316.83C1458.9 326.388 1452.14 333.782 1443.84 339.012C1435.55 344.242 1426.53 346.856 1416.79 346.856H1395.69V416.647C1395.69 417.549 1395.24 418 1394.34 418ZM1416.79 258.13L1395.69 258.4V313.313H1416.79C1422.65 313.313 1427.75 310.518 1432.08 304.928C1436.41 299.247 1438.57 291.898 1438.57 282.881C1438.57 275.668 1436.63 269.762 1432.75 265.163C1428.88 260.474 1423.56 258.13 1416.79 258.13ZM1541.9 420.705C1532.07 420.705 1523.01 418.18 1514.72 413.131C1506.51 408.081 1499.88 401.364 1494.83 392.978C1489.88 384.502 1487.4 375.215 1487.4 365.116L1487.67 277.336C1487.67 267.057 1490.15 257.814 1495.11 249.609C1499.97 241.313 1506.56 234.686 1514.85 229.727C1523.15 224.677 1532.17 222.152 1541.9 222.152C1552 222.152 1561.06 224.632 1569.09 229.591C1577.2 234.551 1583.7 241.223 1588.57 249.609C1593.53 257.904 1596 267.147 1596 277.336L1596.28 365.116C1596.28 375.215 1593.84 384.457 1588.97 392.843C1584.01 401.319 1577.43 408.081 1569.22 413.131C1561.02 418.18 1551.91 420.705 1541.9 420.705ZM1541.9 387.297C1547.49 387.297 1552.36 385.043 1556.51 380.535C1560.66 375.936 1562.73 370.796 1562.73 365.116L1562.46 277.336C1562.46 271.204 1560.52 266.02 1556.65 261.782C1552.77 257.544 1547.85 255.425 1541.9 255.425C1536.22 255.425 1531.35 257.499 1527.3 261.646C1523.24 265.794 1521.21 271.024 1521.21 277.336V365.116C1521.21 371.157 1523.24 376.387 1527.3 380.805C1531.35 385.133 1536.22 387.297 1541.9 387.297ZM1649.7 418H1618.32C1617.6 418 1617.24 417.549 1617.24 416.647L1617.78 226.345C1617.78 225.624 1618.14 225.263 1618.86 225.263H1674.86C1684.87 225.263 1694.06 227.698 1702.45 232.567C1710.84 237.436 1717.51 243.973 1722.47 252.179C1727.52 260.384 1730.04 269.672 1730.04 280.041C1730.04 286.804 1729 292.935 1726.93 298.436C1724.86 303.936 1722.42 308.58 1719.63 312.367C1716.92 316.154 1714.44 318.949 1712.19 320.752C1722.2 331.843 1727.2 344.873 1727.2 359.841L1727.47 416.647C1727.47 417.549 1727.02 418 1726.12 418H1694.74C1694.02 418 1693.66 417.729 1693.66 417.188V359.841C1693.66 353.168 1691.31 347.397 1686.62 342.528C1681.94 337.659 1676.17 335.225 1669.31 335.225H1651.05L1650.78 416.647C1650.78 417.549 1650.42 418 1649.7 418ZM1674.86 258.4H1651.05V301.952H1674.86C1680.54 301.952 1685.59 299.833 1690.01 295.595C1694.51 291.357 1696.77 286.173 1696.77 280.041C1696.77 274.18 1694.6 269.131 1690.28 264.893C1685.95 260.564 1680.81 258.4 1674.86 258.4ZM1809.98 418H1778.73C1777.92 418 1777.52 417.549 1777.52 416.647V258.671H1741.54C1740.64 258.671 1740.19 258.22 1740.19 257.318L1740.46 226.345C1740.46 225.624 1740.82 225.263 1741.54 225.263H1846.77C1847.76 225.263 1848.25 225.624 1848.25 226.345V257.318C1848.25 258.22 1847.89 258.671 1847.17 258.671H1810.79L1811.06 416.647C1811.06 417.549 1810.7 418 1809.98 418ZM1894.24 418H1863.13C1862.23 418 1861.78 417.549 1861.78 416.647L1862.32 226.345C1862.32 225.624 1862.68 225.263 1863.4 225.263H1952.13C1953.03 225.263 1953.48 225.624 1953.48 226.345V257.589C1953.48 258.31 1953.12 258.671 1952.4 258.671H1895.59V301.682H1952.4C1953.12 301.682 1953.48 302.132 1953.48 303.034L1953.75 334.413C1953.75 335.134 1953.3 335.495 1952.4 335.495H1895.59V416.647C1895.59 417.549 1895.14 418 1894.24 418ZM2029.63 420.705C2019.8 420.705 2010.74 418.18 2002.44 413.131C1994.24 408.081 1987.61 401.364 1982.56 392.978C1977.6 384.502 1975.12 375.215 1975.12 365.116L1975.39 277.336C1975.39 267.057 1977.87 257.814 1982.83 249.609C1987.7 241.313 1994.28 234.686 2002.58 229.727C2010.87 224.677 2019.89 222.152 2029.63 222.152C2039.73 222.152 2048.79 224.632 2056.81 229.591C2064.93 234.551 2071.42 241.223 2076.29 249.609C2081.25 257.904 2083.73 267.147 2083.73 277.336L2084 365.116C2084 375.215 2081.57 384.457 2076.7 392.843C2071.74 401.319 2065.16 408.081 2056.95 413.131C2048.74 418.18 2039.64 420.705 2029.63 420.705ZM2029.63 387.297C2035.22 387.297 2040.09 385.043 2044.24 380.535C2048.38 375.936 2050.46 370.796 2050.46 365.116L2050.19 277.336C2050.19 271.204 2048.25 266.02 2044.37 261.782C2040.49 257.544 2035.58 255.425 2029.63 255.425C2023.95 255.425 2019.08 257.499 2015.02 261.646C2010.96 265.794 2008.94 271.024 2008.94 277.336V365.116C2008.94 371.157 2010.96 376.387 2015.02 380.805C2019.08 385.133 2023.95 387.297 2029.63 387.297ZM2195.59 418H2106.05C2105.33 418 2104.97 417.549 2104.97 416.647L2105.24 226.616C2105.24 225.714 2105.69 225.263 2106.59 225.263H2137.43C2138.33 225.263 2138.78 225.714 2138.78 226.616L2138.51 383.916H2195.59C2196.49 383.916 2196.94 384.367 2196.94 385.269V416.647C2196.94 417.549 2196.49 418 2195.59 418ZM2247.79 418H2216.41C2215.51 418 2215.06 417.549 2215.06 416.647L2215.33 226.345C2215.33 225.624 2215.69 225.263 2216.41 225.263H2247.52C2248.24 225.263 2248.6 225.624 2248.6 226.345L2248.88 416.647C2248.88 417.549 2248.51 418 2247.79 418ZM2324.48 420.705C2314.65 420.705 2305.59 418.18 2297.3 413.131C2289.09 408.081 2282.46 401.364 2277.41 392.978C2272.45 384.502 2269.98 375.215 2269.98 365.116L2270.25 277.336C2270.25 267.057 2272.73 257.814 2277.68 249.609C2282.55 241.313 2289.14 234.686 2297.43 229.727C2305.73 224.677 2314.74 222.152 2324.48 222.152C2334.58 222.152 2343.64 224.632 2351.67 229.591C2359.78 234.551 2366.28 241.223 2371.15 249.609C2376.1 257.904 2378.58 267.147 2378.58 277.336L2378.85 365.116C2378.85 375.215 2376.42 384.457 2371.55 392.843C2366.59 401.319 2360.01 408.081 2351.8 413.131C2343.6 418.18 2334.49 420.705 2324.48 420.705ZM2324.48 387.297C2330.07 387.297 2334.94 385.043 2339.09 380.535C2343.24 375.936 2345.31 370.796 2345.31 365.116L2345.04 277.336C2345.04 271.204 2343.1 266.02 2339.23 261.782C2335.35 257.544 2330.43 255.425 2324.48 255.425C2318.8 255.425 2313.93 257.499 2309.88 261.646C2305.82 265.794 2303.79 271.024 2303.79 277.336V365.116C2303.79 371.157 2305.82 376.387 2309.88 380.805C2313.93 385.133 2318.8 387.297 2324.48 387.297Z" fill="#202122"/>
<defs>
<linearGradient id="paint0_linear_56_367" x1="220.69" y1="77" x2="220.69" y2="418.5" gradientUnits="userSpaceOnUse">
<stop stop-color="#202122"/>
<stop offset="1" stop-color="#202122" stop-opacity="0"/>
</linearGradient>
</defs>
</svg>
