<?xml version="1.0" encoding="UTF-8"?>
<!DOCTYPE svg PUBLIC "-//W3C//DTD SVG 1.1//EN" "http://www.w3.org/Graphics/SVG/1.1/DTD/svg11.dtd">
<!-- Creator: CorelDRAW X7 -->
<svg xmlns="http://www.w3.org/2000/svg" xml:space="preserve" width="2.49335in" height="2.50243in" version="1.1" style="shape-rendering:geometricPrecision; text-rendering:geometricPrecision; image-rendering:optimizeQuality; fill-rule:evenodd; clip-rule:evenodd"
viewBox="0 0 963 966"
 xmlns:xlink="http://www.w3.org/1999/xlink">
 <defs>
  <style type="text/css">
   <![CDATA[
    .fil0 {fill:black}
    .fil3 {fill:#316192}
    .fil2 {fill:#336791}
    .fil1 {fill:black;fill-rule:nonzero}
    .fil4 {fill:white;fill-rule:nonzero}
   ]]>
  </style>
 </defs>
 <g id="Layer_x0020_1">
  <metadata id="CorelCorpID_0Corel-Layer"/>
  <g id="_1794919770736">
   <g>
    <path class="fil0" d="M655 526c4,-39 3,-44 31,-38l7 1c22,1 51,-4 68,-12 36,-17 58,-45 22,-37 -82,17 -87,-11 -87,-11 86,-128 122,-290 91,-330 -85,-108 -232,-57 -234,-56l-1 0c-16,-3 -34,-5 -54,-5 -37,-1 -65,9 -87,26 0,0 -262,-108 -249,135 2,52 74,392 159,290 32,-38 62,-70 62,-70 15,10 33,15 52,13l1 -1c0,5 0,9 1,15 -22,24 -16,29 -60,38 -44,9 -18,25 -1,30 21,5 68,12 101,-33l-1 5c8,7 8,50 9,80 1,31 3,59 9,76 7,17 14,60 72,48 48,-11 85,-26 89,-164l0 0zm0 0l0 0 0 0z"/>
   </g>
   <path class="fil1" d="M685 522c0,4 0,6 0,7 -2,75 -14,118 -33,144 -22,32 -49,40 -80,46 -79,17 -95,-33 -105,-62 0,-2 -1,-3 -1,-5 -4,-10 -7,-24 -8,-39 -2,-14 -3,-29 -3,-46 -1,-4 -1,-10 -1,-17 0,-4 0,-8 1,-12 -10,4 -19,6 -28,8 -24,4 -46,0 -59,-3 -10,-3 -24,-9 -33,-17 -1,-2 -3,-3 -4,-4 -7,6 -14,10 -22,13 -28,10 -53,-1 -75,-25 -15,-17 -29,-43 -42,-72 -36,-85 -59,-207 -61,-237 -12,-253 215,-192 276,-171 11,-6 22,-12 35,-15 16,-5 35,-8 56,-7 11,0 22,0 31,1 8,1 15,2 22,3 25,-7 85,-20 144,-6 40,10 82,32 116,74 22,29 22,93 1,168 -15,53 -40,114 -74,170 8,-1 20,-4 39,-8 15,-3 26,-2 35,2 14,7 21,19 20,34 -1,7 -4,15 -9,22 -9,12 -27,27 -49,37 -11,5 -25,9 -39,11 -14,2 -30,3 -43,3l-1 0 -5 -1 -1 4z"/>
   <path class="fil2" d="M783 440c-82,17 -87,-11 -87,-11 86,-128 122,-290 91,-330 -85,-108 -232,-57 -234,-56l-1 0c-16,-3 -34,-5 -54,-5 -37,-1 -65,9 -87,26 0,0 -262,-108 -249,135 2,52 74,392 159,290 32,-38 62,-70 62,-70 15,10 33,15 52,13l1 -1c0,5 0,9 1,15 -22,24 -16,29 -60,38 -44,9 -18,25 -1,30 21,5 68,12 101,-33l-1 5c8,7 14,45 13,79 -1,35 -1,59 5,77 7,19 14,60 72,48 48,-11 73,-37 77,-82 2,-32 8,-27 8,-56l5 -13c5,-44 0,-57 30,-51l7 1c22,1 51,-4 68,-12 36,-17 58,-45 22,-37l0 0z"/>
   <g id="_1794919771120">
    <g>
     <g>
      <path id="path5731" class="fil0" d="M94 845c0,11 -3,19 -9,25 -7,7 -16,10 -27,10l-46 0 0 52 -12 0 0 -122 61 -1c11,0 19,4 24,10 6,6 9,15 9,26l0 0zm-12 0c0,-17 -8,-26 -25,-26l-45 0 0 51 43 0c18,0 27,-8 27,-25l0 0zm0 0l0 0 0 0z"/>
     </g>
     <g>
      <path id="path5733" class="fil0" d="M184 892c0,13 -4,23 -11,30 -7,9 -18,13 -33,13 -7,0 -13,-1 -18,-3 -5,-2 -10,-5 -14,-9 -7,-8 -10,-18 -10,-31 0,-13 3,-23 10,-31 7,-8 18,-12 32,-12 15,0 26,4 33,12 7,7 11,18 11,31l0 0zm-11 0c0,-23 -11,-34 -33,-34 -10,0 -18,3 -23,9 -3,3 -5,6 -7,11 -1,4 -2,8 -2,14 0,10 3,19 8,25 6,6 14,9 24,9 11,0 20,-3 25,-9 3,-3 5,-7 6,-11 1,-4 2,-9 2,-14z"/>
     </g>
     <g>
      <path id="path5735" class="fil0" d="M270 910c0,16 -13,25 -37,25 -8,0 -14,-1 -19,-2 -6,-1 -10,-3 -13,-6 -3,-2 -4,-5 -6,-8 -1,-3 -2,-7 -3,-12l12 0c0,6 2,11 6,14 4,4 12,6 23,6 17,0 26,-6 26,-16 0,-6 -3,-10 -9,-12 -1,-1 -8,-2 -21,-4 -13,-2 -21,-3 -24,-5 -7,-3 -10,-9 -10,-17 0,-9 3,-15 9,-19 3,-2 7,-3 11,-4 5,-1 10,-1 16,-1 24,0 36,9 36,27l-11 0c0,-13 -9,-19 -25,-19 -9,0 -15,1 -19,4 -5,2 -7,6 -7,11 0,5 3,9 9,11 3,1 11,2 23,4 10,1 18,3 21,5 8,3 12,9 12,18l0 0zm0 0l0 0 0 0z"/>
     </g>
     <g>
      <path id="path5737" class="fil0" d="M320 932c-2,1 -4,1 -5,1 -1,0 -2,0 -3,0 -7,0 -13,-1 -16,-4 -3,-2 -5,-7 -5,-13l0 -56 -14 0 0 -8 14 0 0 -27 11 0 0 27 18 0 0 8 -18 0 0 54c0,4 0,7 2,8 2,2 5,3 10,3 1,0 1,0 2,-1 1,0 2,0 4,0l0 8 0 0zm0 0l0 0 0 0z"/>
     </g>
     <g>
      <path id="path5739" class="fil0" d="M405 930c0,24 -13,36 -41,36 -14,0 -24,-2 -30,-7 -5,-4 -9,-11 -10,-19l11 -1c1,7 4,11 7,14 4,3 12,5 22,5 11,0 19,-2 24,-7 5,-5 7,-12 7,-22l0 -14c-7,10 -18,16 -34,16 -13,0 -23,-4 -30,-11 -4,-4 -6,-8 -8,-13 -2,-5 -2,-11 -2,-17 0,-13 3,-23 10,-30 7,-7 18,-11 31,-11 10,0 17,2 23,6 2,1 5,5 10,10l0 -13 10 0 0 77 0 1zm-10 -41c0,-9 -3,-17 -8,-23 -5,-6 -13,-8 -23,-8 -11,0 -19,2 -24,8 -6,6 -9,14 -9,24 0,21 11,32 33,32 5,0 9,0 13,-2 4,-1 7,-4 10,-6 5,-6 8,-14 8,-25z"/>
     </g>
     <g>
      <path id="path5741" class="fil0" d="M466 860c-3,-1 -6,-1 -8,-1 -18,0 -26,11 -26,34l0 39 -11 0 0 -80 11 0 0 14 0 0c2,-6 5,-10 9,-13 4,-3 10,-4 18,-4 2,0 3,0 5,0 1,0 2,0 2,0l0 11 0 0zm0 0l0 0 0 0z"/>
     </g>
     <g>
      <path id="path5743" class="fil0" d="M553 894l-75 0c0,9 2,17 7,23 6,6 15,10 26,10 15,0 25,-7 29,-21l11 0c-2,8 -6,14 -12,20 -3,3 -8,5 -13,6 -4,2 -10,3 -15,3 -14,0 -25,-4 -33,-13 -7,-8 -11,-18 -11,-31 0,-13 4,-23 11,-30 8,-8 18,-12 32,-12 7,0 14,1 19,3 5,2 10,6 14,10 6,8 10,18 10,32l0 0zm-11 -7c0,-8 -3,-15 -9,-21 -6,-6 -14,-9 -23,-9 -5,0 -9,1 -13,2 -4,1 -7,4 -10,7 -5,5 -8,12 -9,21l64 0 0 0zm0 0l0 0 0 0z"/>
     </g>
     <g>
      <path id="path5724" class="fil3" d="M690 899c0,29 -20,44 -58,44 -24,0 -41,-5 -51,-15 -9,-8 -13,-21 -13,-37l15 0c0,26 16,40 49,40 15,0 26,-3 33,-8 6,-5 9,-13 9,-23 0,-10 -4,-18 -12,-22 -5,-2 -16,-5 -33,-8 -22,-4 -36,-8 -43,-12 -9,-6 -14,-16 -14,-30 0,-13 4,-23 12,-29 9,-7 24,-11 45,-11 38,0 56,15 56,45l-15 0c0,-22 -14,-34 -42,-34 -15,0 -25,3 -31,7 -7,5 -10,12 -10,21 0,10 4,17 12,21 4,3 17,6 38,10 19,3 32,7 39,12 9,6 14,16 14,29l0 0zm0 0l0 0 0 0z"/>
     </g>
     <g>
      <path id="path5726" class="fil3" d="M844 942l-9 11 -23 -20c-5,3 -11,6 -18,7 -7,2 -15,3 -24,3 -24,0 -43,-7 -57,-22 -14,-14 -21,-33 -21,-56 0,-24 7,-42 21,-56 13,-14 32,-21 56,-21 13,0 24,2 33,5 10,4 18,10 25,17 13,14 19,32 19,55 0,13 -2,24 -6,34 -4,10 -10,18 -18,25l22 18 0 0zm-13 -77c0,-10 -1,-19 -4,-27 -3,-8 -7,-15 -13,-20 -11,-13 -26,-19 -45,-19 -18,0 -33,6 -45,18 -11,11 -17,27 -17,48 0,20 6,36 17,48 12,12 27,18 45,18 10,0 18,-1 25,-4 7,-3 14,-7 20,-13 11,-12 17,-28 17,-49l0 0zm0 0l0 0 0 0z"/>
     </g>
     <g>
      <path id="path5728" class="fil3" d="M962 939l-106 0 0 -147 15 0 0 135 92 0 -1 12 0 0zm0 0l0 0 0 0z"/>
     </g>
    </g>
    <g>
     <path class="fil4" d="M444 451c-5,5 -8,9 -11,13 -12,16 -16,21 -54,29 -7,1 -12,3 -15,4 4,2 9,5 14,6 9,2 25,5 42,2 16,-3 34,-11 48,-31 1,-1 1,-1 1,-2 2,-4 1,-8 0,-12 -2,-5 -5,-9 -8,-11 -1,-1 -1,-1 -2,-1 0,0 -1,-1 -1,-1 -2,0 -4,-1 -6,-1 -2,0 -5,1 -8,5zm-34 -221c0,3 6,12 15,13 8,1 15,-6 16,-9 0,-3 -6,-7 -15,-8 -8,-1 -16,0 -16,4l0 0zm259 -7c0,3 -6,12 -15,13 -8,1 -16,-6 -16,-9 -1,-3 6,-7 14,-8 9,-1 16,1 17,4l0 0zm38 205c5,5 20,12 73,1 11,-2 18,-2 23,0 6,3 8,8 8,14 0,4 -2,8 -5,12 -7,10 -22,22 -41,30 -15,7 -36,11 -56,13 -12,0 -23,0 -32,-2 -2,0 -4,-1 -6,-2 -2,15 -4,36 -7,57 -3,26 -7,53 -9,67 -4,24 -11,42 -24,55 -13,14 -31,22 -58,28 -32,7 -54,-1 -68,-13 -14,-12 -21,-28 -26,-39 -4,-10 -7,-35 -8,-67 -1,-24 -2,-51 -1,-80 -15,14 -31,20 -47,23 -20,4 -39,0 -50,-3 -8,-2 -19,-6 -24,-12 -4,-3 -6,-7 -7,-11 -1,-6 1,-11 6,-15 4,-4 13,-8 27,-11 31,-7 33,-10 42,-21 2,-3 4,-6 7,-9 0,0 0,-1 0,-1 -3,0 -6,-1 -10,-1 -10,-2 -20,-5 -30,-10 -8,9 -31,33 -55,63 -9,11 -18,17 -27,21 -20,6 -37,-2 -53,-20 -14,-15 -27,-39 -39,-66 -35,-82 -58,-201 -59,-230 -12,-240 222,-162 259,-149 22,-15 50,-24 87,-23 18,0 35,2 50,6 3,-1 7,-2 10,-3 6,-2 14,-4 24,-6 50,-10 149,-15 213,68 18,23 17,81 -2,149 -16,59 -45,127 -85,187zm-217 34c0,1 0,2 0,3 -1,41 -1,83 1,116 1,30 4,52 7,61 4,9 9,22 20,30 10,9 26,14 51,9 22,-5 37,-11 47,-22 10,-10 16,-24 19,-45 3,-14 6,-40 9,-65 4,-32 8,-64 9,-75 -2,-38 17,-45 30,-49 -2,-2 -3,-4 -6,-7 -6,-8 -15,-19 -22,-35 -1,-3 -4,-9 -8,-16 -17,-31 -52,-93 -45,-135 5,-30 28,-50 85,-44 0,0 -1,-1 -1,-2 -2,-7 -7,-17 -13,-29 -20,-37 -60,-85 -126,-103 -23,5 -31,4 -31,0 -6,-1 -9,-3 -5,-7 -4,0 -9,0 -14,0 -117,-2 -138,114 -142,163 5,-3 11,-7 18,-9 10,-4 21,-8 32,-9 11,-2 23,-2 34,1 16,6 29,18 34,41 18,84 2,120 -11,148 -2,5 -4,9 -5,13 0,1 -1,1 -1,1 -8,23 3,-7 -1,4 -4,10 -7,19 -9,26 1,0 3,0 4,0 7,-1 12,1 16,3 0,0 0,0 1,0 2,1 4,2 6,4 7,4 12,12 15,20 1,3 2,6 2,9zm219 -260c1,14 -1,26 -3,38 -1,10 -3,20 -3,31 -1,11 1,23 2,35 4,31 8,64 -13,98l1 2c1,1 2,2 3,3 36,-57 62,-119 77,-173 17,-63 20,-114 5,-132 -58,-74 -147,-69 -193,-60 -1,0 -2,0 -3,1 55,24 90,68 109,102 6,13 11,24 14,33 4,10 5,17 4,21 0,0 0,0 0,1zm-30 184c12,-26 9,-52 6,-77 -1,-13 -3,-26 -2,-38 0,-13 2,-24 3,-34 2,-9 3,-18 3,-28 -46,-6 -64,7 -67,26 -6,36 26,93 43,122 4,8 7,14 9,18 2,4 3,8 5,11zm-325 -155l0 0c0,2 0,5 1,9 1,17 3,50 -3,87 -1,8 -1,15 0,22 2,18 10,35 21,48 12,13 27,22 44,24 3,0 6,1 9,1 3,-9 6,-18 10,-28 -2,5 -5,12 1,-5 1,0 1,-1 1,-1 2,-5 4,-10 6,-15 11,-25 26,-58 9,-135 -3,-15 -11,-22 -20,-25 -8,-3 -16,-3 -25,-1 -10,1 -19,4 -28,7 -14,6 -26,12 -26,12zm-20 0c0,-2 -2,-107 58,-166 -55,-17 -231,-60 -221,133 2,28 24,143 58,223 10,26 22,47 35,61 10,12 21,17 31,13 6,-2 12,-6 18,-14 23,-28 45,-51 54,-61 -3,-3 -6,-6 -8,-9 -15,-16 -25,-37 -27,-61 -1,-8 -1,-17 0,-25 5,-36 4,-67 3,-84 -1,-4 -1,-7 -1,-10zm102 162l0 0 0 0zm348 56c-53,11 -78,3 -89,-6 -2,0 -3,1 -5,1 -7,2 -18,5 -17,29 1,1 4,2 8,3 8,2 17,2 27,1 17,-1 36,-4 48,-10 12,-6 23,-13 29,-19l-1 1z"/>
    </g>
   </g>
  </g>
 </g>
</svg>
