<svg xmlns="http://www.w3.org/2000/svg" xmlns:xlink="http://www.w3.org/1999/xlink" version="1.1" id="Layer_1" x="0px" y="0px" width="288px" height="288px" viewBox="108 0 396 288" enable-background="new 108 0 396 288" xml:space="preserve">
<polygon fill="#FBBD16" points="208.096,234.496 208.096,158.167 222.729,240.603 246.553,252.477 261.867,183.949 261.867,258.923   288.753,272.151 288.753,145.616 247.914,126.278 234.982,186.663 221.937,113.84 181.323,94.391 181.323,221.04 "/>
<polygon fill="#452E7F" points="292.496,145.583 335.152,123.418 335.152,215.238 394.142,184.709 394.369,219.31 292.611,272.796   "/>
<path fill="#962444" d="M275.298,12.158l-30.163,26.669c0,0,58.851,30.25,66,33.825c7.15,3.574,17.325,10.449,6.325,20.625  c-11,10.175-23.1,8.8-31.35,4.675S216.81,63.027,216.81,63.027l-31.074,26.399c0,0,59.949,30.525,69.85,35.75  c9.9,5.226,46.75,18.15,81.675-9.075c34.925-27.225,29.976-37.125,29.976-39.05s-0.825-12.1-6.875-18.425  c-6.051-6.325-23.65-15.4-31.075-19.25S275.298,12.158,275.298,12.158z"/>























<g>
	<path fill="#6D6E71" d="M393.104,167.064c0,4.471-3.509,7.979-8.076,7.979c-4.519,0-8.123-3.509-8.123-7.979   c0-4.375,3.604-7.884,8.123-7.884C389.596,159.181,393.104,162.689,393.104,167.064z M378.924,167.064   c0,3.509,2.596,6.298,6.153,6.298c3.461,0,6.009-2.789,6.009-6.25c0-3.51-2.548-6.346-6.058-6.346   C381.52,160.767,378.924,163.603,378.924,167.064z M383.779,171.198h-1.827v-7.883c0.722-0.146,1.731-0.241,3.029-0.241   c1.489,0,2.163,0.241,2.739,0.577c0.433,0.336,0.769,0.961,0.769,1.73c0,0.864-0.672,1.538-1.634,1.827v0.096   c0.77,0.289,1.202,0.864,1.442,1.923c0.24,1.202,0.385,1.683,0.576,1.971h-1.97c-0.241-0.288-0.385-1.01-0.626-1.923   c-0.144-0.865-0.625-1.25-1.635-1.25h-0.864V171.198z M383.827,166.728h0.865c1.01,0,1.827-0.336,1.827-1.153   c0-0.721-0.528-1.202-1.683-1.202c-0.481,0-0.817,0.048-1.01,0.097V166.728z"/>
</g>

</svg>