<svg width="2181" height="597" viewBox="0 0 2181 597" fill="none" xmlns="http://www.w3.org/2000/svg">
<path fill-rule="evenodd" clip-rule="evenodd" d="M2180.93 219.824C2180.93 218.72 2180.04 217.824 2178.93 217.824H1940.91C1939.8 217.824 1938.91 218.72 1938.91 219.824V377.176C1938.91 378.28 1939.8 379.176 1940.91 379.176H2178.93C2180.04 379.176 2180.93 378.28 2180.93 377.176V332.77C2180.93 331.666 2180.04 330.77 2178.93 330.77H2102.26C2101.15 330.77 2100.26 329.875 2100.26 328.77V322.013C2100.26 320.909 2101.15 320.013 2102.26 320.013H2178.93C2180.04 320.013 2180.93 319.118 2180.93 318.013V278.986C2180.93 277.882 2180.04 276.986 2178.93 276.986H2102.26C2101.15 276.986 2100.26 276.091 2100.26 274.986V268.23C2100.26 267.125 2101.15 266.23 2102.26 266.23H2178.93C2180.04 266.23 2180.93 265.334 2180.93 264.23V219.824Z" fill="#EDF4F3"/>
<path fill-rule="evenodd" clip-rule="evenodd" d="M1903.95 219.824C1903.95 218.72 1903.05 217.824 1901.95 217.824H1663.92C1662.81 217.824 1661.92 218.72 1661.92 219.824V377.176C1661.92 378.28 1662.81 379.176 1663.92 379.176H1740.59C1741.7 379.176 1742.59 378.28 1742.59 377.176V327.392C1742.59 326.287 1743.49 325.392 1744.59 325.392H1901.95C1903.05 325.392 1903.95 324.496 1903.95 323.392V219.824ZM1823.27 268.23C1823.27 267.125 1822.37 266.23 1821.27 266.23H1744.59C1743.49 266.23 1742.59 267.125 1742.59 268.23V274.986C1742.59 276.091 1743.49 276.986 1744.59 276.986H1821.27C1822.37 276.986 1823.27 276.091 1823.27 274.986V268.23Z" fill="#EDF4F3"/>
<path fill-rule="evenodd" clip-rule="evenodd" d="M1626.96 219.824C1626.96 218.72 1626.06 217.824 1624.96 217.824H1386.93C1385.83 217.824 1384.93 218.72 1384.93 219.824V377.176C1384.93 378.28 1385.83 379.176 1386.93 379.176H1463.61C1464.71 379.176 1465.61 378.28 1465.61 377.176V327.392C1465.61 326.287 1466.5 325.392 1467.61 325.392H1624.96C1626.06 325.392 1626.96 324.496 1626.96 323.392V219.824ZM1546.28 268.23C1546.28 267.125 1545.39 266.23 1544.28 266.23H1467.61C1466.5 266.23 1465.61 267.125 1465.61 268.23V274.986C1465.61 276.091 1466.5 276.986 1467.61 276.986H1544.28C1545.39 276.986 1546.28 276.091 1546.28 274.986V268.23Z" fill="#EDF4F3"/>
<path fill-rule="evenodd" clip-rule="evenodd" d="M1349.97 2.00004C1349.97 0.895471 1349.08 4.08061e-05 1347.97 4.05251e-05L1271.3 2.10255e-05C1270.19 2.07446e-05 1269.3 0.895449 1269.3 2.00002V38.7838C1269.3 47.0681 1262.58 53.7838 1254.3 53.7838H1203.62C1195.34 53.7838 1188.62 47.0681 1188.62 38.7838V2.00001C1188.62 0.895441 1187.73 1.01446e-05 1186.62 1.00041e-05L1109.95 2.54313e-07C1108.84 1.1386e-07 1107.95 0.895429 1107.95 2V92.5676C1107.95 100.852 1114.66 107.568 1122.95 107.568H1186.62C1187.73 107.568 1188.62 108.463 1188.62 109.568V159.351C1188.62 160.456 1189.52 161.351 1190.62 161.351H1267.3C1268.4 161.351 1269.3 160.456 1269.3 159.351V109.568C1269.3 108.463 1270.19 107.568 1271.3 107.568H1334.97C1343.26 107.568 1349.97 100.852 1349.97 92.5676V2.00004Z" fill="#D90429"/>
<path fill-rule="evenodd" clip-rule="evenodd" d="M1310.77 219.338C1310.13 218.489 1308.94 218.285 1308.06 218.874L1230.07 270.868C1229.4 271.316 1228.52 271.316 1227.85 270.868L1149.86 218.874C1148.98 218.285 1147.79 218.489 1147.15 219.338L1109.21 269.917C1108.53 270.835 1108.75 272.144 1109.71 272.781L1187.73 324.798C1188.29 325.169 1188.62 325.793 1188.62 326.462V377.176C1188.62 378.28 1189.52 379.176 1190.62 379.176H1267.3C1268.4 379.176 1269.3 378.28 1269.3 377.176V326.462C1269.3 325.793 1269.63 325.169 1270.19 324.798L1348.21 272.781C1349.17 272.144 1349.39 270.835 1348.7 269.917L1310.77 219.338Z" fill="#D90429"/>
<path fill-rule="evenodd" clip-rule="evenodd" d="M1349.97 437.649C1349.97 436.544 1349.08 435.649 1347.97 435.649L1271.3 435.649C1270.19 435.649 1269.3 436.544 1269.3 437.649V487.433C1269.3 488.537 1268.4 489.433 1267.3 489.433H1190.62C1189.52 489.433 1188.62 488.537 1188.62 487.433V437.649C1188.62 436.544 1187.73 435.649 1186.62 435.649L1109.95 435.649C1108.84 435.649 1107.95 436.544 1107.95 437.649V541.216C1107.95 542.321 1108.84 543.216 1109.95 543.216H1186.62C1187.73 543.216 1188.62 544.112 1188.62 545.216V595C1188.62 596.105 1189.52 597 1190.62 597H1267.3C1268.4 597 1269.3 596.105 1269.3 595V545.216C1269.3 544.112 1270.19 543.216 1271.3 543.216H1347.97C1349.08 543.216 1349.97 542.321 1349.97 541.216V437.649Z" fill="#D90429"/>
<path fill-rule="evenodd" clip-rule="evenodd" d="M992.31 219.824C992.31 218.72 991.415 217.824 990.31 217.824H832.959C831.854 217.824 830.959 218.72 830.959 219.824V377.176C830.959 378.28 831.854 379.176 832.959 379.176H1070.99C1072.09 379.176 1072.99 378.28 1072.99 377.176V330.081C1072.99 328.976 1072.09 328.081 1070.99 328.081H994.31C993.206 328.081 992.31 327.186 992.31 326.081V219.824Z" fill="#EDF4F3"/>
<path fill-rule="evenodd" clip-rule="evenodd" d="M796 219.824C796 218.72 795.104 217.824 794 217.824H555.973C554.868 217.824 553.973 218.72 553.973 219.824V377.176C553.973 378.28 554.868 379.176 555.973 379.176H794C795.104 379.176 796 378.28 796 377.176V332.77C796 331.666 795.104 330.77 794 330.77H717.324C716.219 330.77 715.324 329.875 715.324 328.77V322.013C715.324 320.909 716.219 320.013 717.324 320.013H794C795.104 320.013 796 319.118 796 318.013V278.986C796 277.882 795.104 276.986 794 276.986H717.324C716.219 276.986 715.324 276.091 715.324 274.986V268.23C715.324 267.125 716.219 266.23 717.324 266.23H794C795.104 266.23 796 265.334 796 264.23V219.824Z" fill="#EDF4F3"/>
<path fill-rule="evenodd" clip-rule="evenodd" d="M519.013 219.824C519.013 218.72 518.118 217.824 517.013 217.824H440.338C439.233 217.824 438.338 218.72 438.338 219.824V269.608C438.338 270.713 437.442 271.608 436.338 271.608H359.662C358.557 271.608 357.662 270.713 357.662 269.608V219.824C357.662 218.72 356.767 217.824 355.662 217.824H278.986C277.882 217.824 276.986 218.72 276.986 219.824V377.176C276.986 378.28 277.882 379.176 278.986 379.176H355.662C356.767 379.176 357.662 378.28 357.662 377.176V327.392C357.662 326.287 358.557 325.392 359.662 325.392H436.338C437.442 325.392 438.338 326.287 438.338 327.392V377.176C438.338 378.28 439.233 379.176 440.338 379.176H517.013C518.118 379.176 519.013 378.28 519.013 377.176V219.824Z" fill="#EDF4F3"/>
<path fill-rule="evenodd" clip-rule="evenodd" d="M242.027 219.824C242.027 218.72 241.132 217.824 240.027 217.824H2C0.895431 217.824 0 218.72 0 219.824V377.176C0 378.28 0.895428 379.176 2 379.176H78.6757C79.7802 379.176 80.6757 378.28 80.6757 377.176V327.392C80.6757 326.287 81.5711 325.392 82.6757 325.392H240.027C241.132 325.392 242.027 324.496 242.027 323.392V219.824ZM161.351 268.23C161.351 267.125 160.456 266.23 159.351 266.23H82.6757C81.5711 266.23 80.6757 267.125 80.6757 268.23V274.986C80.6757 276.091 81.5711 276.986 82.6757 276.986H159.351C160.456 276.986 161.351 276.091 161.351 274.986V268.23Z" fill="#EDF4F3"/>
</svg>