<svg width="90" height="60" viewBox="0 0 90 60" id="svg-y1" xmlns="http://www.w3.org/2000/svg">
    <path fill-rule="evenodd" clip-rule="evenodd" d="M90 2.00001C90 0.895445 89.1046 1.50311e-05 88 1.47502e-05L62 8.13802e-06C60.8954 7.85711e-06 60 0.895438 60 2.00001V5C60 13.2843 53.2843 20 45 20V20C36.7157 20 30 13.2843 30 5V2C30 0.895434 29.1046 3.70084e-06 28 3.56038e-06L2 2.54313e-07C0.895431 1.1386e-07 0 0.895431 0 2V25C0 33.2843 6.71573 40 15 40H28C29.1046 40 30 40.8954 30 42V58C30 59.1046 30.8954 60 32 60H58C59.1046 60 60 59.1046 60 58V42C60 40.8954 60.8954 40 62 40H75C83.2843 40 90 33.2843 90 25V2.00001Z" fill="#D90429"/>
</svg>