<svg width="90" height="60" viewBox="0 0 90 60" id="svg-y2" xmlns="http://www.w3.org/2000/svg">
    <path fill-rule="evenodd" clip-rule="evenodd" d="M76.1352 1.51359C75.4983 0.66442 74.309 0.460695 73.4258 1.04949L46.1094 19.2604C45.4376 19.7083 44.5624 19.7083 43.8906 19.2604L16.5742 1.04948C15.691 0.460682 14.5017 0.664405 13.8648 1.51358L1.26852 18.3087C0.579615 19.2272 0.803779 20.5359 1.75911 21.1728L29.1094 39.4063C29.6658 39.7772 30 40.4017 30 41.0704V58C30 59.1046 30.8954 60 32 60H58C59.1046 60 60 59.1046 60 58V41.0704C60 40.4017 60.3342 39.7772 60.8906 39.4063L88.2409 21.1728C89.1962 20.5359 89.4204 19.2272 88.7315 18.3087L76.1352 1.51359Z" fill="#D90429"/>
</svg>