<svg width="90" height="60" viewBox="0 0 90 60" id="svg-y3" xmlns="http://www.w3.org/2000/svg">
    <path fill-rule="evenodd" clip-rule="evenodd" d="M90 2.00001C90 0.895445 89.1046 1.50311e-05 88 1.47502e-05L62 8.13802e-06C60.8954 7.85711e-06 60 0.895438 60 2.00001V18C60 19.1046 59.1046 20 58 20H32C30.8954 20 30 19.1046 30 18V2C30 0.895434 29.1046 3.70084e-06 28 3.56038e-06L2 2.54313e-07C0.895431 1.1386e-07 0 0.895431 0 2V38C0 39.1046 0.89543 40 2 40H28C29.1046 40 30 40.8954 30 42V58C30 59.1046 30.8954 60 32 60H58C59.1046 60 60 59.1046 60 58V42C60 40.8954 60.8954 40 62 40H88C89.1046 40 90 39.1046 90 38V2.00001Z" fill="#D90429"/>
</svg>