<svg width="90" height="60" viewBox="0 0 90 60" id="svg-e" xmlns="http://www.w3.org/2000/svg">
    <path fill-rule="evenodd" clip-rule="evenodd" d="M90 2C90 0.895431 89.1046 0 88 0H2C0.895431 0 0 0.895432 0 2V58C0 59.1046 0.89543 60 2 60H88C89.1046 60 90 59.1046 90 58V44C90 42.8954 89.1046 42 88 42H62C60.8954 42 60 41.1046 60 40V40C60 38.8954 60.8954 38 62 38H88C89.1046 38 90 37.1046 90 36V24C90 22.8954 89.1046 22 88 22H62C60.8954 22 60 21.1046 60 20V20C60 18.8954 60.8954 18 62 18H88C89.1046 18 90 17.1046 90 16V2Z" fill="#D9D9D9"/>
</svg>