<svg width="90" height="60" viewBox="0 0 90 60" id="svg-h" xmlns="http://www.w3.org/2000/svg">
    <path fill-rule="evenodd" clip-rule="evenodd" d="M90 2C90 0.895431 89.1046 0 88 0H62C60.8954 0 60 0.895431 60 2V18C60 19.1046 59.1046 20 58 20H32C30.8954 20 30 19.1046 30 18V2C30 0.895431 29.1046 0 28 0H2C0.895431 0 0 0.895432 0 2V58C0 59.1046 0.89543 60 2 60H28C29.1046 60 30 59.1046 30 58V42C30 40.8954 30.8954 40 32 40H58C59.1046 40 60 40.8954 60 42V58C60 59.1046 60.8954 60 62 60H88C89.1046 60 90 59.1046 90 58V2Z" fill="#D9D9D9"/>
</svg>