<svg width="149" height="291" viewBox="0 0 149 291" fill="none" xmlns="http://www.w3.org/2000/svg">
<path d="M133.2 14.6934C133.2 14.6934 141.4 14.0934 133.2 6.59338C125 -0.906618 110.4 -0.906593 101.5 19.4934C92.6 39.8934 100.5 68.4934 124.3 66.7934C148.1 65.0934 147.1 51.7934 147.1 51.7934C147.1 51.7934 147 33.6934 122.5 36.4934C98 39.1934 89.5 67.7934 88.5 80.7934C87.5 93.6934 93.6 124.793 117.8 125.693C143 126.693 153.4 89.5934 117.7 89.9934C82 90.2934 81 123.993 82.7 135.593C84.4 147.193 97.3 168.293 119.8 167.293C142.3 166.293 149.6 139.793 116.7 140.093C107.6 140.193 97.8 142.693 92.4 150.493C81 166.893 100.8 181.193 104.1 196.593C107.8 213.693 94 225.993 78.4 228.693C64 231.193 38 229.293 36 210.393C35.4 204.693 37.9 198.593 42.6 195.293C56.6 185.293 82.4 205.293 76.8 221.393C73.1 231.993 59.5 237.393 49.3 238.693C49.1 238.693 48.8 238.793 48.6 238.793C21.7 241.893 3 263.993 2 288.693" stroke="#DFC2ED" stroke-width="3" stroke-miterlimit="10" stroke-linecap="round"/>
</svg>
