<svg width="1171" height="616" viewBox="0 0 1171 616" fill="none" xmlns="http://www.w3.org/2000/svg">
<path d="M988.329 169.898C988.329 169.898 1161.36 209.057 1168.84 338.564C1176.45 472.015 1017.41 528.56 925.575 454.776C894.503 430.063 872.038 392.439 863.588 351.908C843.514 250.722 955.663 298.699 995.202 335.249C1039.53 376.426 1072.21 441.209 1067.98 504.298C1066.2 528.884 1058.65 552.241 1045.51 571.549C1028.22 597.873 1000.24 611.266 970.829 613.593C880.683 620.6 810.402 552.378 780.831 458.917C756.338 382.419 743.531 304.239 703.845 233.736C673.017 178.822 629.817 126.979 574.68 103.884C546.653 92.2189 517.345 89.0931 488.932 94.286C388.228 112.919 391.99 195.809 430.556 242.022C469.122 288.235 549.656 326.229 583.623 253.855C609.146 199.652 599.076 133.397 564.359 82.1768C530.407 32.1975 465.251 -14.6138 410.896 7.88828C364.174 27.142 341.903 83.4883 330.279 133.972C305.249 242.045 283.277 425.001 149.208 418.329C103.551 416.203 48.9349 386.46 23.589 341.049C-20.5457 262.093 3.75407 133.481 92.517 122.986C126.968 118.829 171.856 137.193 192.329 172.216C213.493 208.982 183.961 245.454 157.71 261.64" stroke="hsl(230, 100%, 20%)" stroke-width="3" stroke-miterlimit="10" stroke-linecap="round"/>
</svg>
