<svg width="1167" height="705" viewBox="0 0 1167 705" fill="none" xmlns="http://www.w3.org/2000/svg">
<path d="M686.573 519.566C685.873 513.766 680.373 513.866 677.373 517.766C674.373 521.766 669.773 528.966 671.473 534.266C672.573 537.666 675.373 538.366 677.973 537.466C679.673 537.166 681.273 536.166 682.473 534.766C685.673 530.766 687.173 524.466 686.573 519.566Z" fill="#D6CFDA"/>
<path d="M956.098 170.71C955.998 170.11 955.698 169.41 955.298 168.91C954.098 165.71 950.398 165.21 947.298 167.11C941.898 170.51 932.898 184.81 941.998 188.81C946.298 190.71 950.598 187.81 953.098 184.41C955.998 180.61 957.098 175.51 956.098 170.71Z" fill="#D6CFDA"/>
<path d="M419.409 303.923C419.809 302.823 420.109 301.623 420.209 300.423C420.309 300.223 420.409 300.023 420.409 299.823C420.709 298.523 420.609 297.723 420.209 296.423C420.209 296.323 420.109 296.323 420.109 296.223C420.109 296.023 420.109 295.723 420.109 295.523C420.009 293.723 418.609 292.523 417.009 292.323C415.709 291.723 414.109 291.923 413.009 293.223C410.509 296.123 404.309 306.523 406.609 311.623C407.109 313.223 408.709 314.123 410.209 314.223C410.309 314.223 410.309 314.223 410.409 314.223C415.709 315.223 418.309 309.523 419.409 303.923Z" fill="#D6CFDA"/>
<path d="M27.308 554.002C27.108 553.202 26.508 552.602 25.808 552.202C25.708 551.902 25.6079 551.602 25.6079 551.402C25.3079 550.302 24.5079 549.602 23.6079 549.302C22.9079 548.502 22.0079 548.002 20.7079 548.002C17.3079 547.902 15.408 551.802 14.308 555.202C13.608 556.602 13.2079 558.302 13.2079 559.902C12.8079 563.302 13.508 566.902 16.808 568.602C20.108 570.402 23.3079 568.902 25.0079 566.102C25.7079 565.502 26.4079 564.902 26.9079 564.002C28.9079 560.802 28.208 557.302 27.308 554.002Z" fill="#D6CFDA"/>
<path d="M483.745 136.029C483.445 134.229 482.744 132.529 481.344 131.329C477.244 127.729 471.644 132.229 468.944 135.529C466.244 138.829 463.344 144.329 466.444 148.329C467.444 149.629 468.744 150.229 470.044 150.329C470.444 150.729 470.945 151.129 471.645 151.429C476.245 153.429 480.644 148.029 482.344 144.429C482.744 143.529 483.144 142.429 483.444 141.329C485.044 140.129 485.745 137.729 483.745 136.029Z" fill="#D6CFDA"/>
<path d="M18.7445 376.029C18.4445 374.229 17.7445 372.529 16.3445 371.329C12.2445 367.729 6.64446 372.229 3.94446 375.529C1.24446 378.829 -1.65554 384.329 1.44446 388.329C2.44446 389.629 3.74443 390.229 5.04443 390.329C5.44443 390.729 5.94453 391.129 6.64453 391.429C11.2445 393.429 15.6445 388.029 17.3445 384.429C17.7445 383.529 18.1445 382.429 18.4445 381.329C20.0445 380.129 20.7445 377.729 18.7445 376.029Z" fill="#D6CFDA"/>
<path d="M774.213 98.1782C775.313 94.8782 775.113 86.9783 771.413 85.3783C770.613 83.0783 767.913 82.3782 766.013 83.5782C761.213 86.5782 758.713 93.2782 760.913 98.5782C761.213 99.3782 761.713 100.078 762.213 100.678C762.613 101.778 763.513 102.378 764.513 102.678C765.513 103.178 766.613 103.578 767.813 103.478C771.013 103.478 773.113 101.078 774.213 98.1782Z" fill="#D6CFDA"/>
<path d="M1166.21 48.1782C1167.31 44.8782 1167.11 36.9783 1163.41 35.3783C1162.61 33.0783 1159.91 32.3782 1158.01 33.5782C1153.21 36.5782 1150.71 43.2782 1152.91 48.5782C1153.21 49.3782 1153.71 50.0782 1154.21 50.6782C1154.61 51.7782 1155.51 52.3782 1156.51 52.6782C1157.51 53.1782 1158.61 53.5783 1159.81 53.4783C1163.01 53.4783 1165.11 51.0782 1166.21 48.1782Z" fill="#D6CFDA"/>
<path d="M1009.54 572.028C1010.34 570.428 1010.74 568.728 1010.44 567.328V567.228C1010.74 564.928 1009.94 562.828 1008.44 561.628C1007.84 560.728 1006.84 560.128 1005.24 560.028C1000.54 559.528 996.645 565.928 995.145 569.628C994.245 571.728 993.545 573.928 994.745 576.128C995.945 578.328 998.445 578.928 1000.64 577.928C1002.64 577.828 1004.84 577.028 1006.24 576.028C1006.34 575.928 1006.44 575.928 1006.54 575.828C1007.84 574.828 1008.84 573.628 1009.54 572.028Z" fill="#D6CFDA"/>
<path d="M115.545 286.028C116.345 284.428 116.745 282.728 116.445 281.328V281.228C116.745 278.928 115.945 276.828 114.445 275.628C113.845 274.728 112.845 274.128 111.245 274.028C106.545 273.528 102.645 279.928 101.145 283.628C100.245 285.728 99.5446 287.928 100.745 290.128C101.945 292.328 104.445 292.928 106.645 291.928C108.645 291.828 110.845 291.028 112.245 290.028C112.345 289.928 112.445 289.928 112.545 289.828C113.845 288.828 114.845 287.628 115.545 286.028Z" fill="#D6CFDA"/>
<path d="M249.545 479.028C250.345 477.428 250.745 475.728 250.445 474.328V474.228C250.745 471.928 249.945 469.828 248.445 468.628C247.845 467.728 246.845 467.128 245.245 467.028C240.545 466.528 236.645 472.928 235.145 476.628C234.245 478.728 233.545 480.928 234.745 483.128C235.945 485.328 238.445 485.928 240.645 484.928C242.645 484.828 244.845 484.028 246.245 483.028C246.345 482.928 246.445 482.928 246.545 482.828C247.845 481.828 248.845 480.628 249.545 479.028Z" fill="#D6CFDA"/>
<path d="M487.392 188.494C487.392 188.394 487.492 188.294 487.492 188.194C488.392 184.494 487.192 179.594 483.192 178.294C478.992 176.894 475.092 180.794 472.692 183.794C470.292 186.794 467.892 190.794 469.792 194.594C470.392 195.794 471.292 196.694 472.392 197.394C474.092 199.594 477.692 199.494 480.292 197.994C480.392 197.894 480.493 197.894 480.593 197.794C484.193 196.294 488.792 192.694 487.392 188.494Z" fill="#D6CFDA"/>
<path d="M648.392 693.494C648.392 693.394 648.492 693.294 648.492 693.194C649.392 689.494 648.192 684.594 644.192 683.294C639.992 681.894 636.092 685.794 633.692 688.794C631.292 691.794 628.892 695.794 630.792 699.594C631.392 700.794 632.292 701.694 633.392 702.394C635.092 704.594 638.692 704.494 641.292 702.994C641.392 702.894 641.493 702.894 641.593 702.794C645.193 701.294 649.792 697.694 648.392 693.494Z" fill="#D6CFDA"/>
<path d="M741.392 296.494C741.392 296.394 741.492 296.294 741.492 296.194C742.392 292.494 741.192 287.594 737.192 286.294C732.992 284.894 729.092 288.794 726.692 291.794C724.292 294.794 721.892 298.794 723.792 302.594C724.392 303.794 725.292 304.694 726.392 305.394C728.092 307.594 731.692 307.494 734.292 305.994C734.392 305.894 734.493 305.894 734.593 305.794C738.193 304.294 742.792 300.694 741.392 296.494Z" fill="#D6CFDA"/>
<path d="M637.427 5.8003C637.427 5.4003 637.527 5.00029 637.527 4.60029C637.527 2.90029 636.027 1.6003 634.427 1.3003C633.927 1.0003 633.427 0.700273 632.827 0.400273C625.127 -2.49973 615.027 11.1003 620.827 17.3003C622.427 19.0003 624.427 19.7003 626.427 19.6003C627.327 20.0003 628.227 20.2003 629.427 20.1003C635.727 19.9003 639.027 11.7003 637.427 5.8003Z" fill="#D6CFDA"/>
<path d="M653.427 135.8C653.427 135.4 653.527 135 653.527 134.6C653.527 132.9 652.027 131.6 650.427 131.3C649.927 131 649.427 130.7 648.827 130.4C641.127 127.5 631.027 141.1 636.827 147.3C638.427 149 640.427 149.7 642.427 149.6C643.327 150 644.227 150.2 645.427 150.1C651.727 149.9 655.027 141.7 653.427 135.8Z" fill="#D6CFDA"/>
<path d="M569.495 220.685C569.995 219.485 570.195 218.085 570.195 216.785C570.095 214.585 569.095 212.185 567.195 210.985C565.895 207.785 563.095 205.285 559.195 206.185C553.995 207.285 550.495 212.885 551.195 217.985C551.795 222.385 555.395 225.785 559.695 226.485C559.995 226.685 560.295 226.885 560.695 227.085C563.395 228.385 566.495 227.485 568.295 225.085C569.095 223.785 569.495 222.285 569.495 220.685Z" fill="#D6CFDA"/>
</svg>
