<svg width="160" height="160" viewBox="0 0 160 160" fill="none" xmlns="http://www.w3.org/2000/svg">
<path fill-rule="evenodd" clip-rule="evenodd" d="M20 20L0 0V20V40V60V80V100V120V140V160H20H40H60H80H100H120H140H160L140 140H160L140 120H160L140 100H160L140 80H160L140 60H160L140 40H160L140 20H160L140 0V20L120 0V20L100 0V20L80 0V20L60 0V20L40 0V20L20 0V20ZM40 40V20L60 40H40ZM60 60L40 40L20 20H40H60V40V60ZM80 60L60 40H80V60ZM100 60H80H60H40V40H20V20H0L20 40H0L20 60H0L20 80H0L20 100H0L20 120H0L20 140H0L20 160V140L40 160V140L60 160V140L80 160V140L100 160V140L120 160V140L140 160V140V120V100V80V60V40V20H120H100H80H60L80 40L100 60ZM100 40V60V80L80 60V80L60 60V80L40 60L20 40V60V80V100V120V140H40H60H80H100H120H140L120 120H140L120 100H140L120 80H140L120 60H140L120 40H140L120 20V40L100 20V40ZM100 40H80V20L100 40ZM100 40H120V60L100 40ZM120 60V80L100 60H120ZM100 100V80L120 100H100ZM100 120V100L120 120H100ZM80 120H100V140L80 120ZM60 120H80V140L60 120ZM40 120H60V140L40 120ZM40 100L60 120V100L80 120V100L100 120L120 140V120V100V80H100H80H60H40V60H20L40 80H20L40 100ZM40 100V80L60 100H40ZM80 100H100L80 80V100ZM80 100H60V80L80 100ZM40 100V120L20 100H40ZM40 120V140L20 120H40Z" fill="#071352"/>
</svg>
