<svg width="160" height="160" viewBox="0 0 160 160" fill="none" xmlns="http://www.w3.org/2000/svg">
<path fill-rule="evenodd" clip-rule="evenodd" d="M140 20L160 0V20V40V60V80V100V120V140V160H140H120H100H80H60H40H20H0L20 140H0L20 120H0L20 100H0L20 80H0L20 60H0L20 40H0L20 20H0L20 0V20L40 0V20L60 0V20L80 0V20L100 0V20L120 0V20L140 0V20ZM120 40V20L100 40H120ZM100 60L120 40L140 20H120H100V40V60ZM80 60L100 40H80V60ZM60 60H80H100H120V40H140V20H160L140 40H160L140 60H160L140 80H160L140 100H160L140 120H160L140 140H160L140 160V140L120 160V140L100 160V140L80 160V140L60 160V140L40 160V140L20 160V140V120V100V80V60V40V20H40H60H80H100L80 40L60 60ZM60 40V60V80L80 60V80L100 60V80L120 60L140 40V60V80V100V120V140H120H100H80H60H40H20L40 120H20L40 100H20L40 80H20L40 60H20L40 40H20L40 20V40L60 20V40ZM60 40H80V20L60 40ZM60 40H40V60L60 40ZM40 60V80L60 60H40ZM60 100V80L40 100H60ZM60 120V100L40 120H60ZM80 120H60V140L80 120ZM100 120H80V140L100 120ZM120 120H100V140L120 120ZM120 100L100 120V100L80 120V100L60 120L40 140V120V100V80H60H80H100H120V60H140L120 80H140L120 100ZM120 100V80L100 100H120ZM80 100H60L80 80V100ZM80 100H100V80L80 100ZM120 100V120L140 100H120ZM120 120V140L140 120H120Z" fill="#0E1E6C"/>
</svg>
