<svg width="100" height="100" viewBox="0 0 100 100" fill="none" xmlns="http://www.w3.org/2000/svg">
<path fill-rule="evenodd" clip-rule="evenodd" d="M29.3861 0.3C34.7195 0.0555454 36.4195 0 50 0C63.5832 0 65.2805 0.0583181 70.6109 0.3C75.9359 0.541682 79.5723 1.38891 82.7527 2.625C86.0886 3.88095 89.1104 5.84882 91.6082 8.39168C94.1514 10.8891 96.1195 13.9112 97.375 17.2472C98.6109 20.4278 99.4555 24.0639 99.7 29.3861C99.9445 34.7195 100 36.4195 100 50C100 63.5805 99.9418 65.2805 99.7 70.6141C99.4582 75.9359 98.6109 79.5723 97.375 82.7527C96.0973 86.0391 94.3859 88.8304 91.6082 91.6082C89.1109 94.1514 86.0886 96.1195 82.7527 97.375C79.5723 98.6109 75.9359 99.4555 70.6141 99.7C65.2805 99.9445 63.5805 100 50 100C36.4195 100 34.7195 99.9418 29.3861 99.7C24.0639 99.4582 20.4278 98.6109 17.2472 97.375C13.9611 96.0973 11.1695 94.3859 8.39168 91.6082C5.84836 89.1109 3.88036 86.0886 2.625 82.7527C1.38891 79.5723 0.544454 75.9359 0.3 70.6141C0.0555454 65.2805 0 63.5832 0 50C0 36.4167 0.0583181 34.7195 0.3 29.3889C0.541682 24.0639 1.38891 20.4278 2.625 17.2472C3.88095 13.9114 5.84882 10.8895 8.39168 8.39168C10.889 5.84836 13.9111 3.88036 17.2472 2.625C20.4278 1.38891 24.0639 0.544454 29.3861 0.3V0.3ZM70.2055 9.3C64.9332 9.06109 63.35 9.00832 50 9.00832C36.65 9.00832 35.0667 9.06109 29.7945 9.3C24.9195 9.52223 22.2722 10.3361 20.5111 11.0222C18.1778 11.9278 16.5111 13.0111 14.7611 14.7611C13.0139 16.5111 11.9278 18.1778 11.0222 20.5111C10.3361 22.2722 9.52223 24.9195 9.3 29.7945C9.06109 35.0667 9.00832 36.65 9.00832 50C9.00832 63.35 9.06109 64.9332 9.3 70.2055C9.52223 75.0805 10.3361 77.7277 11.0222 79.4891C11.8232 81.6609 13.1009 83.6255 14.7611 85.2391C16.3743 86.8991 18.3391 88.1768 20.5111 88.9777C22.2722 89.6641 24.9195 90.4777 29.7945 90.7C35.0667 90.9391 36.6472 90.9918 50 90.9918C63.3527 90.9918 64.9332 90.9391 70.2055 90.7C75.0805 90.4777 77.7277 89.6641 79.4891 88.9777C81.8223 88.0723 83.4891 86.9891 85.2391 85.2391C86.8991 83.6259 88.1768 81.6609 88.9777 79.4891C89.6641 77.7277 90.4777 75.0805 90.7 70.2055C90.9391 64.9332 90.9918 63.35 90.9918 50C90.9918 36.65 90.9391 35.0667 90.7 29.7945C90.4777 24.9195 89.6641 22.2722 88.9777 20.5111C88.0723 18.1778 86.9891 16.5111 85.2391 14.7611C83.4891 13.0139 81.8223 11.9278 79.4891 11.0222C77.7277 10.3361 75.0805 9.52223 70.2055 9.3V9.3ZM43.6159 65.4132C45.64 66.2518 47.8091 66.6832 50 66.6832C54.425 66.6832 58.6682 64.9255 61.7968 61.7968C64.9259 58.6682 66.6836 54.4245 66.6836 50C66.6836 45.5755 64.9259 41.3318 61.7968 38.2031C58.6682 35.0744 54.425 33.3166 50 33.3166C47.8091 33.3166 45.64 33.7482 43.6159 34.5866C41.5914 35.425 39.7524 36.6539 38.2032 38.2031C36.654 39.7523 35.4251 41.5914 34.5867 43.6155C33.7483 45.6395 33.3168 47.8091 33.3168 50C33.3168 52.1909 33.7483 54.3605 34.5867 56.3845C35.4251 58.4086 36.654 60.2477 38.2032 61.7968C39.7524 63.3459 41.5914 64.575 43.6159 65.4132V65.4132ZM31.8275 31.8273C36.6472 27.0076 43.1841 24.3 50 24.3C56.8164 24.3 63.3532 27.0076 68.1727 31.8273C72.9923 36.647 75.7 43.1841 75.7 50C75.7 56.8159 72.9923 63.3527 68.1727 68.1727C63.3532 72.9923 56.8164 75.7 50 75.7C43.1841 75.7 36.6472 72.9923 31.8275 68.1727C27.0078 63.3527 24.3001 56.8159 24.3001 50C24.3001 43.1841 27.0078 36.647 31.8275 31.8273V31.8273ZM81.3986 28.129C82.5377 26.9897 83.1777 25.4445 83.1777 23.8333C83.1777 22.2221 82.5377 20.6769 81.3986 19.5376C80.2591 18.3984 78.7141 17.7583 77.1027 17.7583C75.4918 17.7583 73.9464 18.3984 72.8073 19.5376C71.6677 20.6769 71.0277 22.2221 71.0277 23.8333C71.0277 25.4445 71.6677 26.9897 72.8073 28.129C73.9464 29.2683 75.4918 29.9083 77.1027 29.9083C78.7141 29.9083 80.2591 29.2683 81.3986 28.129Z" fill="#04395E"/>
</svg>
