<svg width="100" height="100" viewBox="0 0 100 100" fill="none" xmlns="http://www.w3.org/2000/svg">
<path fill-rule="evenodd" clip-rule="evenodd" d="M0 9.34176C0 4.18237 4.18237 0 9.34176 0H90.6582C95.8176 0 100 4.18237 100 9.34176V90.6582C100 95.8176 95.8176 100 90.6582 100H67.9609V93.3633H90.6582C92.1523 93.3633 93.3633 92.1523 93.3633 90.6582V9.34176C93.3633 7.84769 92.1523 6.63665 90.6582 6.63665H9.34176C7.84769 6.63665 6.63665 7.84769 6.63665 9.34176V90.6582C6.63665 92.1523 7.84769 93.3633 9.34176 93.3633H53.1779V100H9.34176C4.18237 100 0 95.8176 0 90.6582V9.34176Z" fill="#04395E"/>
<path fill-rule="evenodd" clip-rule="evenodd" d="M81.6173 13.3683C82.2141 13.4494 82.7078 13.5165 83.0772 13.5539C84.7716 13.7257 86.061 15.1523 86.061 16.8554V30.1598C86.061 31.9925 84.5753 33.4781 82.7426 33.4781H73.8729C73.0884 33.4781 72.4489 33.5283 72.0084 33.7801C71.861 33.8643 71.7305 33.976 71.6106 34.2032C71.4777 34.455 71.2782 35.0054 71.2782 36.0729V41.6243H82.7426C83.6802 41.6243 84.5739 42.0209 85.203 42.716C85.8321 43.4111 86.1378 44.3399 86.0445 45.2728L84.5662 60.0556C84.3965 61.7519 82.9691 63.0437 81.2643 63.0437H71.2782V96.6823C71.2782 98.515 69.7925 100.001 67.9599 100.001C66.1272 100.001 64.6415 98.515 64.6415 96.6823V59.7254C64.6415 57.8927 66.1272 56.4071 67.9599 56.4071H78.2613L79.0759 48.2609H67.9599C66.1272 48.2609 64.6415 46.7753 64.6415 44.9426V36.0729C64.6415 32.1383 66.2159 29.4463 68.7157 28.0178C70.7868 26.8343 73.0168 26.8395 73.794 26.8414C73.8223 26.8414 73.8486 26.8415 73.8729 26.8415H79.4243V19.7868C75.8484 19.3339 71.0285 18.8538 66.5594 20.0233C63.7571 20.7566 61.3428 22.1001 59.5965 24.3934C57.8441 26.6947 56.4954 30.3058 56.4954 36.0729V44.9426C56.4954 46.7753 55.0097 48.2609 53.1771 48.2609H44.6692V56.4071H53.1771C55.0097 56.4071 56.4954 57.8927 56.4954 59.7254V96.6823C56.4954 98.515 55.0097 100.001 53.1771 100.001C51.3444 100.001 49.8587 98.515 49.8587 96.6823V63.0437H41.3509C39.5183 63.0437 38.0326 61.558 38.0326 59.7254V44.9426C38.0326 43.1099 39.5183 41.6243 41.3509 41.6243H49.8587V36.0729C49.8587 29.2746 51.4589 24.1252 54.3165 20.3727C57.1802 16.612 61.037 14.6083 64.8793 13.6028C71.1916 11.951 78.1478 12.8966 81.6173 13.3683Z" fill="#04395E"/>
</svg>
